<?xml version="1.0" encoding="utf-8"?>
<svg version="1.1" xmlns="http://www.w3.org/2000/svg" x="0px" y="0px"
     viewBox="0 0 512 512" xml:space="preserve">
  <g>
    <circle fill="#1F3049" cx="256" cy="256" r="256"/>
    <g>
      <g>
        <g>
          <path fill="#E6CA56" d="M431.6,253.5c-1.4,97.1-81.4,174.6-178.5,173.2C156.1,425.2,78.6,345.3,80,248.2
            C81.5,151.1,161.4,73.5,258.5,75C355.6,76.5,433.1,156.4,431.6,253.5z"/>
        </g>
        <g>
          <g>
            <path fill="#D5872A" d="M399.4,253c-1.2,79.3-66.5,142.6-145.8,141.4c-79.3-1.2-142.6-66.5-141.4-145.7
              c1.2-79.3,66.5-142.6,145.7-141.4C337.3,108.5,400.6,173.7,399.4,253z"/>
          </g>
        </g>
        <g>
          <g>
            <g>
              <path fill="#E6CA56" d="M184,303h22V192h-22v-24h79.4c35.2,0,59.1,15.2,59.1,41.5c0,15.1-7.8,29.2-30,36
                c24.2,6,34.6,20.7,34.6,38.6c0,25.8-21.1,42.8-60.4,42.8H184V303z M261.3,235c19.8,0,31.3-7.8,31.3-21.9
                c0-13.8-11.5-21.1-29.2-21.1H236v43H261.3z M266,303c19.3,0,31-7.7,31-22.2c0-13.8-10.7-22.8-31.8-22.8H236v45H266z"/>
            </g>
          </g>
          <g>
            <g>
              <rect x="226" y="141" width="22" height="43" fill="#E6CA56"/>
              <rect x="264" y="141" width="22" height="43" fill="#E6CA56"/>
            </g>
            <g>
              <rect x="226" y="317" width="22" height="44" fill="#E6CA56"/>
              <rect x="264" y="317" width="22" height="44" fill="#E6CA56"/>
            </g>
          </g>
        </g>
      </g>
    </g>
  </g>
</svg>